<?xml version="1.0" encoding="UTF-8"?><!DOCTYPE svg PUBLIC "-//W3C//DTD SVG 1.1//EN" "http://www.w3.org/Graphics/SVG/1.1/DTD/svg11.dtd"><svg xmlns="http://www.w3.org/2000/svg" xmlns:xlink="http://www.w3.org/1999/xlink" xmlns:svgjs="http://svgjs.com/svgjs"><symbol id="alert" viewBox="0 0 48 44"><title>icon</title><desc>Created with Avocode.</desc><path id="SvgjsPath1007" d="M257.158 3852.23C256.846 3852.55 256.846 3853.05 257.158 3853.37C258.60400000000004 3854.81 259.40000000000003 3856.74 259.40000000000003 3858.79C259.40000000000003 3860.84 258.60400000000004 3862.7599999999998 257.158 3864.21C256.846 3864.52 256.846 3865.03 257.158 3865.34C257.315 3865.5 257.519 3865.57 257.724 3865.57C257.929 3865.57 258.134 3865.5 258.28999999999996 3865.34C260.03799999999995 3863.59 260.99999999999994 3861.26 260.99999999999994 3858.79C260.99999999999994 3856.31 260.03799999999995 3853.98 258.28999999999996 3852.23C257.97799999999995 3851.92 257.47099999999995 3851.92 257.15799999999996 3852.23ZM215.71 3852.23C213.96200000000002 3853.98 213 3856.31 213 3858.79C213 3861.2599999999998 213.962 3863.59 215.71 3865.34C215.866 3865.5 216.071 3865.57 216.276 3865.57C216.48100000000002 3865.57 216.685 3865.5 216.842 3865.34C217.15400000000002 3865.03 217.15400000000002 3864.52 216.842 3864.21C215.39600000000002 3862.76 214.60000000000002 3860.84 214.60000000000002 3858.79C214.60000000000002 3856.74 215.39600000000002 3854.81 216.842 3853.37C217.15400000000002 3853.0499999999997 217.15400000000002 3852.5499999999997 216.842 3852.23C216.52900000000002 3851.92 216.02200000000002 3851.92 215.71 3852.23ZM253.79 3853.83C253.47799999999998 3854.15 253.47799999999998 3854.65 253.79 3854.97C255.83599999999998 3857.0099999999998 255.83599999999998 3860.3399999999997 253.79 3862.39C253.47799999999998 3862.7 253.47799999999998 3863.21 253.79 3863.52C253.946 3863.67 254.15099999999998 3863.75 254.356 3863.75C254.561 3863.75 254.766 3863.67 254.922 3863.52C257.591 3860.85 257.591 3856.5 254.922 3853.83C254.609 3853.52 254.102 3853.52 253.79 3853.83C253.47799999999998 3854.15 253.79 3853.83 253.79 3853.83ZM219.644 3863.75C219.84900000000002 3863.75 220.054 3863.67 220.21 3863.52C220.52200000000002 3863.21 220.52200000000002 3862.7 220.21 3862.39C218.16400000000002 3860.3399999999997 218.16400000000002 3857.0099999999998 220.21 3854.97C220.52200000000002 3854.6499999999996 220.52200000000002 3854.1499999999996 220.21 3853.83C219.898 3853.52 219.39100000000002 3853.52 219.078 3853.83C216.409 3856.5 216.409 3860.85 219.078 3863.52C219.234 3863.67 219.439 3863.75 219.644 3863.75C219.84900000000002 3863.75 219.644 3863.75 219.644 3863.75ZM258.29 3852.23C258.29 3852.23 256.54200000000003 3850.4900000000002 258.29 3852.23ZM250.62 3852C250.654 3846.52 246.965 3842.88 243.79500000000002 3841.43C242.90200000000002 3841.02 241.96 3840.72 241.00000000000003 3840.49L241.00000000000003 3840C241.00000000000003 3837.79 239.20600000000002 3836 237.00000000000003 3836C234.79400000000004 3836 233.00000000000003 3837.79 233.00000000000003 3840L233.00000000000003 3840.56C232.13700000000003 3840.79 231.28900000000002 3841.07 230.48300000000003 3841.44C226.98100000000002 3843.05 223.43200000000004 3846.9500000000003 223.40000000000003 3852L223.40000000000003 3859.2C223.40000000000003 3864.31 221.59500000000003 3868.7 218.03600000000003 3872.23C217.82400000000004 3872.44 217.74700000000004 3872.76 217.83800000000002 3873.04C217.92700000000002 3873.33 218.17000000000002 3873.54 218.46400000000003 3873.59L226.05700000000002 3874.9C227.49 3875.15 228.78900000000002 3875.34 230.01200000000003 3875.51C231.40800000000002 3878.2400000000002 234.15000000000003 3880 237.14600000000002 3880C240.14300000000003 3880 242.88600000000002 3878.24 244.282 3875.5C245.49900000000002 3875.34 246.792 3875.15 248.217 3874.9L255.80900000000003 3873.59C256.10400000000004 3873.54 256.346 3873.33 256.43600000000004 3873.04C256.526 3872.7599999999998 256.45000000000005 3872.44 256.23800000000006 3872.23C252.51000000000005 3868.53 250.62000000000006 3864.14 250.62000000000006 3859.2ZM228.195 3852.8C227.753 3852.8 227.398 3852.44 227.4 3852C227.424 3848.25 230.40200000000002 3845.88 232.15800000000002 3845.07C235.23800000000003 3843.65 239.03400000000002 3843.65 242.13400000000001 3845.07C242.53500000000003 3845.25 242.71200000000002 3845.73 242.52800000000002 3846.13C242.34400000000002 3846.53 241.87000000000003 3846.71 241.46800000000002 3846.52C238.78600000000003 3845.3 235.49300000000002 3845.3 232.82800000000003 3846.52C231.41500000000002 3847.18 229.01900000000003 3849.06 229.00000000000003 3852C228.99800000000002 3852.45 228.63900000000004 3852.8 228.20000000000002 3852.8ZM237.146 3878.4C235.119 3878.4 233.225 3877.39 232.009 3875.7400000000002L232.01 3875.7400000000002C232.32399999999998 3875.78 232.628 3875.8 232.932 3875.8300000000004C233.082 3875.8400000000006 233.23499999999999 3875.8600000000006 233.38299999999998 3875.8700000000003C233.493 3875.8800000000006 233.59799999999998 3875.8800000000006 233.706 3875.8900000000003C236.03099999999998 3876.0600000000004 238.173 3876.0600000000004 240.49499999999998 3875.9000000000005C240.63099999999997 3875.8900000000003 240.765 3875.8800000000006 240.902 3875.8700000000003C241.07399999999998 3875.8500000000004 241.25099999999998 3875.84 241.42499999999998 3875.82C241.69899999999998 3875.8 241.97199999999998 3875.77 242.254 3875.7400000000002L242.284 3875.7400000000002C241.07 3877.3900000000003 239.17399999999998 3878.4 237.146 3878.4ZM237 3837.6C238.323 3837.6 239.4 3838.68 239.4 3840L239.4 3840.15C237.806 3839.9300000000003 236.181 3839.94 234.6 3840.19L234.6 3840C234.6 3838.68 235.677 3837.6 237 3837.6Z " fill-opacity="1" transform="matrix(1,0,0,1,-213,-3836)"/></symbol><symbol id="arrow" viewBox="0 0 16 18"><path id="SvgjsPath1007" d="M983.721 1887.28L983.721 1887.28L986.423 1890L986.423 1890L986.423 1890L983.721 1892.72L983.721 1892.72L978.318 1898.17L975.617 1895.45L979.115 1891.92L971.443 1891.92L971.443 1888.0700000000002L979.103 1888.0700000000002L975.617 1884.5500000000002L978.318 1881.8300000000002Z " transform="matrix(1,0,0,1,-971,-1881)"/></symbol><symbol id="blog" viewBox="0 0 21 20"><title>blog</title><desc>Created with Avocode.</desc><path id="SvgjsPath1019" d="M289.47 70.2937C289.47 68.7988 288.24800000000005 67.5875 286.74 67.5875C285.231 67.5875 284.008 68.7988 284.008 70.2937C284.008 71.7887 285.231 73 286.74 73C288.248 73 289.47 71.7887 289.47 70.2937ZM297.315 73C297.262 65.7413 291.334 59.8688 284.008 59.8175V63.8262C289.091 63.8775 293.216 67.9638 293.267 73ZM300.123 73C300.097 64.1713 292.895 57.0488 284.008 57.01V53C295.135 53.0388 304.145 61.9737 304.16999999999996 73Z " fill-opacity="1" transform="matrix(1,0,0,1,-284,-53)"/></symbol><symbol id="building" viewBox="0 0 16 16"><path id="SvgjsPath1028" d="M1169.73 14.5924L1169.73 13L1168.27 13L1168.27 14.5924C1166.21 14.9558 1164.6399999999999 16.8309 1164.6399999999999 19.0952L1173.36 19.0952C1173.36 16.8309 1171.79 14.955799999999998 1169.7299999999998 14.592399999999998ZM1176.27 24.4286L1174.09 24.4286L1174.09 21.381C1174.09 20.9604 1173.77 20.619 1173.36 20.619L1164.6399999999999 20.619C1164.2299999999998 20.619 1163.9099999999999 20.9604 1163.9099999999999 21.381L1163.9099999999999 24.4286L1161.7299999999998 24.4286C1161.3299999999997 24.4286 1160.9999999999998 24.7699 1160.9999999999998 25.1905L1160.9999999999998 28.2381C1160.9999999999998 28.659399999999998 1161.3299999999997 29 1161.7299999999998 29L1176.2699999999998 29C1176.6699999999998 29 1176.9999999999998 28.6594 1176.9999999999998 28.2381L1176.9999999999998 25.1905C1176.9999999999998 24.7699 1176.6699999999998 24.4286 1176.2699999999998 24.4286ZM1163.91 27.4762L1162.45 27.4762L1162.45 25.952399999999997L1163.91 25.952399999999997ZM1166.82 27.4762L1165.36 27.4762L1165.36 25.952399999999997L1166.82 25.952399999999997ZM1166.82 23.6667L1165.36 23.6667L1165.36 22.142899999999997L1166.82 22.142899999999997ZM1169.73 27.4762L1168.27 27.4762L1168.27 25.952399999999997L1169.73 25.952399999999997ZM1169.73 23.6667L1168.27 23.6667L1168.27 22.142899999999997L1169.73 22.142899999999997ZM1172.64 27.4762L1171.18 27.4762L1171.18 25.952399999999997L1172.64 25.952399999999997ZM1172.64 23.6667L1171.18 23.6667L1171.18 22.142899999999997L1172.64 22.142899999999997ZM1175.55 27.4762L1174.09 27.4762L1174.09 25.952399999999997L1175.55 25.952399999999997Z " transform="matrix(1,0,0,1,-1161,-13)"/></symbol><symbol id="circle-chevron" viewBox="0 0 35 35">
<path class="st0" d="M17.5,35C7.8,35,0,27.2,0,17.5C0,7.8,7.8,0,17.5,0C27.2,0,35,7.8,35,17.5C35,27.2,27.2,35,17.5,35z M16,9
	l-3,2.9l5.1,5.1L13,22.1l3,2.9l8-8L16,9z"/>
</symbol><symbol id="clock" viewBox="0 0 30 30"><title>icon</title><desc>Created with Avocode.</desc><path id="SvgjsPath1007" d="M211 2735C211 2743.28 204.281 2750 195.995 2750C194.644 2750 193.34 2749.81 192.095 2749.47L192.926 2747.1C193.91 2747.35 194.93499999999997 2747.5 195.99499999999998 2747.5C202.89 2747.5 208.49899999999997 2741.89 208.49899999999997 2735C208.49899999999997 2728.11 202.88999999999996 2722.5 195.99499999999998 2722.5C193.20099999999996 2722.5 190.62899999999996 2723.43 188.54599999999996 2724.99L191.10899999999995 2727.5499999999997L182.33999999999995 2729.24L184.03499999999994 2720.47L186.76399999999995 2723.2C189.30899999999994 2721.2 192.50699999999995 2720 195.99499999999995 2720C204.28099999999995 2720 210.99999999999994 2726.72 210.99999999999994 2735ZM197.25 2727.5L197.25 2735L203.5 2735L203.5 2737.5L194.75 2737.5L194.75 2727.5ZM185.335 2741.5C185.75400000000002 2742.18 186.232 2742.82 186.77100000000002 2743.41L185.01600000000002 2745.2C184.287 2744.4199999999996 183.64200000000002 2743.56 183.092 2742.6299999999997ZM186.868 2746.89L188.634 2745.08C189.242 2745.5299999999997 189.891 2745.92 190.577 2746.25L189.74099999999999 2748.62C188.71499999999997 2748.15 187.75199999999998 2747.5699999999997 186.868 2746.89ZM184.25 2739.25L182.001 2740.38C181.624 2739.4 181.35 2738.37 181.186 2737.3L183.684 2737.1000000000004C183.809 2737.84 184 2738.5600000000004 184.25 2739.2500000000005ZM181 2734.81L183.519 2734.61C183.552 2733.73 183.675 2732.88 183.87900000000002 2732.05L181.28400000000002 2732.05C181.10600000000002 2732.94 181.01200000000003 2733.8700000000003 181.00000000000003 2734.8100000000004Z " fill-opacity="1" transform="matrix(1,0,0,1,-181,-2720)"/></symbol><symbol id="crossroads" viewBox="0 0 63 66"><title>icon</title><desc>Created with Avocode.</desc><path id="SvgjsPath1007" d="M820.715 387.101L830.5550000000001 378.197C830.836 377.945 830.998 377.581 830.998 377.2C830.998 376.82 830.836 376.45599999999996 830.558 376.20799999999997L820.715 367.301L799.629 367.301L799.629 365.09999999999997C799.629 364.49199999999996 799.139 363.99999999999994 798.535 363.99999999999994C797.9309999999999 363.99999999999994 797.4409999999999 364.49199999999996 797.4409999999999 365.09999999999997L797.4409999999999 367.301L778.1819999999999 367.301C776.1309999999999 367.301 774.4649999999999 368.976 774.4649999999999 371.037L774.4649999999999 383.364C774.4649999999999 385.42499999999995 776.131 387.101 778.1819999999999 387.101L797.4409999999999 387.101L797.4409999999999 389.3L779.2779999999999 389.3L769.4329999999999 398.208C769.1539999999999 398.461 768.9939999999999 398.822 768.9939999999999 399.20000000000005C768.9939999999999 399.57800000000003 769.1539999999999 399.939 769.434 400.19300000000004L779.278 409.1L797.441 409.1L797.441 428.90000000000003C797.441 429.50800000000004 797.931 430.00000000000006 798.5350000000001 430.00000000000006C799.1390000000001 430.00000000000006 799.6290000000001 429.50800000000004 799.6290000000001 428.90000000000003L799.6290000000001 409.1L822.1720000000001 409.1C824.2210000000001 409.1 825.8870000000002 407.425 825.8870000000002 405.36400000000003L825.8870000000002 393.03600000000006C825.8870000000002 390.9750000000001 824.2210000000001 389.30000000000007 822.1720000000001 389.30000000000007L799.6290000000001 389.30000000000007L799.6290000000001 387.10100000000006L820.7150000000001 387.10100000000006 " fill-opacity="1" transform="matrix(1,0,0,1,-768,-364)"/></symbol><symbol id="doc-docx" viewBox="0 0 35 37"><path id="SvgjsPath1013" d="M404.582 7131.94C404.179 7131.94 403.875 7132.08 403.63 7132.379999999999C403.375 7132.699999999999 403.24399999999997 7133.219999999999 403.24399999999997 7133.909999999999C403.24399999999997 7134.5999999999985 403.37899999999996 7135.109999999999 403.642 7135.439999999999C403.897 7135.749999999999 404.193 7135.8899999999985 404.582 7135.8899999999985C404.968 7135.8899999999985 405.264 7135.749999999998 405.51099999999997 7135.439999999999C405.77399999999994 7135.119999999999 405.905 7134.5999999999985 405.905 7133.8899999999985C405.905 7133.199999999999 405.77799999999996 7132.689999999999 405.52299999999997 7132.369999999998C405.28499999999997 7132.079999999998 404.984 7131.939999999998 404.582 7131.939999999998ZM396.355 7135.9C396.91400000000004 7135.9 397.348 7135.73 397.644 7135.41C397.96500000000003 7135.05 398.13100000000003 7134.51 398.13100000000003 7133.79C398.13500000000005 7133.15 397.97700000000003 7132.66 397.66600000000005 7132.34C397.38700000000006 7132.06 396.99000000000007 7131.91 396.4800000000001 7131.91C396.3690000000001 7131.91 396.2770000000001 7131.92 396.19900000000007 7131.92L396.19900000000007 7135.9C396.2460000000001 7135.9 396.28900000000004 7135.9 396.3280000000001 7135.9ZM424.185 7127.21L421.033 7127.21L421.033 7122.42C421.033 7122.41 421.029 7122.4 421.029 7122.38C421.027 7122.35 421.025 7122.31 421.019 7122.27C421.012 7122.25 421.005 7122.22 420.994 7122.1900000000005C420.98800000000006 7122.17 420.98400000000004 7122.150000000001 420.97600000000006 7122.13C420.9630000000001 7122.1 420.94700000000006 7122.07 420.93000000000006 7122.05C420.9220000000001 7122.03 420.91600000000005 7122.02 420.90600000000006 7122C420.87700000000007 7121.96 420.84600000000006 7121.92 420.8090000000001 7121.88L413.2540000000001 7114.22C413.25200000000007 7114.22 413.2480000000001 7114.22 413.24700000000007 7114.22C413.2130000000001 7114.18 413.1790000000001 7114.150000000001 413.13900000000007 7114.13C413.1190000000001 7114.11 413.09600000000006 7114.11 413.0760000000001 7114.09C413.05300000000005 7114.08 413.0320000000001 7114.07 413.0080000000001 7114.06C412.9810000000001 7114.05 412.9550000000001 7114.04 412.9280000000001 7114.030000000001C412.9070000000001 7114.030000000001 412.8870000000001 7114.02 412.8660000000001 7114.01C412.8190000000001 7114 412.7690000000001 7114 412.7200000000001 7114L395.71600000000007 7114C395.29800000000006 7114 394.96100000000007 7114.34 394.96100000000007 7114.76L394.96100000000007 7127.21L391.8060000000001 7127.21C391.3560000000001 7127.21 390.9900000000001 7127.59 390.9920000000001 7128.04L390.9920000000001 7139.79C390.9920000000001 7140.26 391.3620000000001 7140.62 391.8140000000001 7140.62L394.95900000000006 7140.62L394.95900000000006 7149.24C394.95900000000006 7149.66 395.29800000000006 7150.01 395.71400000000006 7150.01L420.27700000000004 7150.01C420.694 7150.01 421.033 7149.66 421.033 7149.24L421.033 7140.62L424.185 7140.62C424.635 7140.62 425 7140.25 425 7139.79L425 7128.04C425 7127.59 424.635 7127.21 424.185 7127.21ZM396.47 7115.53L411.96400000000006 7115.53L411.96400000000006 7122.42C411.96400000000006 7122.85 412.30300000000005 7123.1900000000005 412.72 7123.1900000000005L419.52200000000005 7123.1900000000005L419.52200000000005 7127.210000000001L396.47 7127.210000000001ZM419.522 7148.47L396.46999999999997 7148.47L396.46999999999997 7140.62L419.522 7140.62ZM419.465 7137.75L418.39 7135.9L417.31 7137.75L414.733 7137.75L417.092 7133.77L414.93399999999997 7130.09L417.47499999999997 7130.09L418.412 7131.75L419.33299999999997 7130.09L421.85799999999995 7130.09L419.6929999999999 7133.82L422.0589999999999 7137.75ZM408.033 7133.93C408.033 7135.150000000001 407.719 7136.12 407.10400000000004 7136.83C406.47300000000007 7137.55 405.62600000000003 7137.92 404.58400000000006 7137.92C403.53400000000005 7137.92 402.68000000000006 7137.55 402.05100000000004 7136.83C401.434 7136.13 401.12000000000006 7135.16 401.12000000000006 7133.96C401.12000000000006 7133.2 401.2270000000001 7132.55 401.43600000000004 7132.02C401.59700000000004 7131.63 401.819 7131.27 402.09400000000005 7130.950000000001C402.37800000000004 7130.630000000001 402.69900000000007 7130.39 403.04200000000003 7130.2300000000005C403.48400000000004 7130.02 403.99800000000005 7129.92 404.56500000000005 7129.92C405.6120000000001 7129.92 406.46100000000007 7130.28 407.09600000000006 7131.01C407.71700000000004 7131.71 408.0330000000001 7132.7 408.0330000000001 7133.93ZM394.26 7137.81L393.937 7137.76L393.937 7130.13L394.248 7130.07C394.805 7129.969999999999 395.572 7129.92 396.32599999999996 7129.92C397.61299999999994 7129.92 398.503 7130.18 399.20199999999994 7130.76C400.0059999999999 7131.42 400.4289999999999 7132.45 400.4289999999999 7133.74C400.4289999999999 7135.429999999999 399.7819999999999 7136.389999999999 399.2369999999999 7136.9C398.5009999999999 7137.58 397.4119999999999 7137.92 396.0079999999999 7137.92C395.37799999999993 7137.92 394.75999999999993 7137.88 394.25999999999993 7137.81ZM412.609 7135.85C413.006 7135.85 413.438 7135.75 413.65999999999997 7135.650000000001L414.09299999999996 7135.460000000001L414.441 7137.4400000000005L414.207 7137.570000000001C413.902 7137.740000000001 413.265 7137.920000000001 412.393 7137.920000000001C410.14 7137.920000000001 408.68499999999995 7136.390000000001 408.68499999999995 7134.020000000001C408.68499999999995 7131.560000000001 410.23299999999995 7129.910000000002 412.53499999999997 7129.910000000002C413.361 7129.910000000002 413.98199999999997 7130.100000000001 414.28599999999994 7130.270000000001L414.53099999999995 7130.410000000002L414.06899999999996 7132.4000000000015L413.65799999999996 7132.210000000002C413.33299999999997 7132.060000000002 412.977 7131.980000000002 412.60299999999995 7131.980000000002C411.54999999999995 7131.980000000002 410.94399999999996 7132.690000000002 410.94399999999996 7133.930000000002C410.94199999999995 7135.150000000002 411.54999999999995 7135.850000000002 412.609 7135.850000000002ZM413.477 7116.61L418.453 7121.66L413.477 7121.66Z " transform="matrix(1,0,0,1,-390,-7114)"/></symbol><symbol id="doc-pdf" viewBox="0 0 35 36"><path id="SvgjsPath1007" d="M423.185 7038.21L420.033 7038.21L420.033 7033.43C420.033 7033.41 420.029 7033.400000000001 420.029 7033.39C420.027 7033.35 420.025 7033.31 420.019 7033.280000000001C420.012 7033.250000000001 420.005 7033.22 419.994 7033.200000000001C419.98800000000006 7033.18 419.98400000000004 7033.160000000001 419.97600000000006 7033.130000000001C419.96400000000006 7033.110000000001 419.94700000000006 7033.080000000001 419.93000000000006 7033.050000000001C419.9220000000001 7033.030000000001 419.91600000000005 7033.020000000001 419.90600000000006 7033.000000000001C419.87700000000007 7032.960000000001 419.84600000000006 7032.920000000001 419.8090000000001 7032.880000000001L412.2540000000001 7025.230000000001C412.25200000000007 7025.230000000001 412.2480000000001 7025.220000000001 412.24700000000007 7025.220000000001C412.2130000000001 7025.190000000001 412.1790000000001 7025.160000000001 412.13900000000007 7025.130000000001C412.1190000000001 7025.120000000001 412.09600000000006 7025.110000000001 412.0760000000001 7025.100000000001C412.05300000000005 7025.080000000001 412.0320000000001 7025.0700000000015 412.0080000000001 7025.060000000001C411.9810000000001 7025.050000000001 411.9540000000001 7025.040000000001 411.9280000000001 7025.040000000001C411.9070000000001 7025.030000000001 411.8870000000001 7025.02 411.8660000000001 7025.02C411.8190000000001 7025.01 411.7690000000001 7025 411.7200000000001 7025L394.71600000000007 7025C394.29800000000006 7025 393.96100000000007 7025.35 393.96100000000007 7025.77L393.96100000000007 7038.21L390.8060000000001 7038.21C390.3560000000001 7038.21 389.9900000000001 7038.59 389.9920000000001 7039.04L389.9920000000001 7050.79C389.9920000000001 7051.25 390.3620000000001 7051.61 390.8140000000001 7051.61L393.95900000000006 7051.61L393.95900000000006 7060.23C393.95900000000006 7060.65 394.29800000000006 7061 394.7130000000001 7061L419.2770000000001 7061C419.6940000000001 7061 420.0330000000001 7060.65 420.0330000000001 7060.23L420.0330000000001 7051.61L423.18500000000006 7051.61C423.63500000000005 7051.61 424.00000000000006 7051.25 424.00000000000006 7050.79L424.00000000000006 7039.04C424.00000000000006 7038.59 423.63500000000005 7038.21 423.18500000000006 7038.21ZM395.47 7026.53L410.96400000000006 7026.53L410.96400000000006 7033.429999999999C410.96400000000006 7033.849999999999 411.30300000000005 7034.19 411.72 7034.19L418.52200000000005 7034.19L418.52200000000005 7038.21L395.47 7038.21ZM418.522 7059.46L395.46999999999997 7059.46L395.46999999999997 7051.61L418.522 7051.61ZM402.433 7043.4C402.433 7043.94 402.319 7044.42 402.097 7044.8099999999995C401.876 7045.19 401.58799999999997 7045.499999999999 401.236 7045.719999999999C400.899 7045.94 400.545 7046.079999999999 400.19 7046.159999999999C399.742 7046.239999999999 399.127 7046.279999999999 398.311 7046.279999999999L397.614 7046.279999999999L397.614 7049.249999999999L394.92499999999995 7049.249999999999L394.92499999999995 7040.579999999999L398.227 7040.579999999999C399.325 7040.579999999999 400.034 7040.629999999999 400.393 7040.719999999999C400.97099999999995 7040.849999999999 401.46 7041.159999999999 401.849 7041.619999999999C402.23699999999997 7042.089999999999 402.433 7042.679999999999 402.433 7043.399999999999ZM411.126 7044.72C411.126 7046.570000000001 410.41499999999996 7047.62 409.82099999999997 7048.18C409.01099999999997 7048.92 407.82 7049.3 406.28299999999996 7049.3C405.58799999999997 7049.3 404.90999999999997 7049.26 404.36299999999994 7049.18L404.00699999999995 7049.13L404.00699999999995 7040.76L404.34899999999993 7040.7C404.95899999999995 7040.59 405.79999999999995 7040.53 406.6259999999999 7040.53C408.0349999999999 7040.53 409.0089999999999 7040.82 409.77699999999993 7041.46C410.6619999999999 7042.18 411.1259999999999 7043.31 411.1259999999999 7044.72ZM418.666 7043.94L418.666 7045.94L415.348 7045.94L415.348 7049.25L412.773 7049.25L412.773 7040.58L419.069 7040.58L419.069 7042.79L415.35 7042.79L415.35 7043.94ZM412.477 7027.62L417.453 7032.66L412.477 7032.66ZM406.797 7042.72C406.67400000000004 7042.72 406.57300000000004 7042.7300000000005 406.48600000000005 7042.7300000000005L406.48600000000005 7047.080000000001C406.53800000000007 7047.080000000001 406.58700000000005 7047.080000000001 406.63000000000005 7047.080000000001L406.65700000000004 7047.080000000001C407.26800000000003 7047.080000000001 407.74500000000006 7046.900000000001 408.069 7046.550000000001C408.425 7046.160000000001 408.606 7045.560000000001 408.606 7044.780000000001C408.61 7044.070000000001 408.437 7043.540000000001 408.098 7043.1900000000005C407.79 7042.88 407.354 7042.72 406.797 7042.72ZM399.185 7042.76C399.061 7042.74 398.755 7042.71 398.019 7042.71L397.616 7042.71L397.616 7044.15L398.13399999999996 7044.15C398.979 7044.15 399.26099999999997 7044.08 399.34299999999996 7044.049999999999C399.491 7043.999999999999 399.602 7043.919999999999 399.68399999999997 7043.8099999999995C399.76199999999994 7043.7 399.80499999999995 7043.57 399.80499999999995 7043.419999999999C399.80499999999995 7043.23 399.74799999999993 7043.089999999999 399.643 7042.98C399.52 7042.86 399.37199999999996 7042.79 399.18499999999995 7042.759999999999Z " transform="matrix(1,0,0,1,-389,-7025)"/></symbol><symbol id="doc-xlsx" viewBox="0 0 36 37"><path id="SvgjsPath1016" d="M395.631 7176.53L411.58 7176.53L411.58 7183.42C411.58 7183.85 411.93 7184.1900000000005 412.359 7184.1900000000005L419.361 7184.1900000000005L419.361 7188.210000000001L395.631 7188.210000000001ZM419.361 7209.47L395.631 7209.47L395.631 7201.62L419.361 7201.62ZM417.256 7196.85L416.17199999999997 7198.650000000001L413.58599999999996 7198.650000000001L415.95399999999995 7194.780000000001L413.78499999999997 7191.1900000000005L416.33299999999997 7191.1900000000005L417.275 7192.81L418.197 7191.1900000000005L420.73 7191.1900000000005L418.559 7194.820000000001L420.934 7198.650000000001L418.333 7198.650000000001ZM396.426 7194.78L394.259 7191.19L396.80600000000004 7191.19L397.747 7192.8099999999995L398.67 7191.19L401.20300000000003 7191.19L399.03200000000004 7194.82L401.40600000000006 7198.65L398.80500000000006 7198.65L397.72800000000007 7196.849999999999L396.64500000000004 7198.65L394.059 7198.65ZM410.209 7195.84C408.89300000000003 7195.33 408.228 7194.51 408.228 7193.41C408.228 7191.94 409.371 7190.92 411.01300000000003 7190.92C411.764 7190.92 412.60200000000003 7191.14 413.04400000000004 7191.36L413.326 7191.5L412.793 7193.4L412.365 7193.17C412.158 7193.06 411.622 7192.88 411.081 7192.88C410.62800000000004 7192.88 410.594 7193.18 410.594 7193.28C410.594 7193.429999999999 410.594 7193.54 411.48699999999997 7193.92C412.76699999999994 7194.4400000000005 413.36799999999994 7195.22 413.36799999999994 7196.36C413.36799999999994 7197.54 412.59599999999995 7198.92 410.42499999999995 7198.92C409.61599999999993 7198.92 408.59399999999994 7198.64 408.18399999999997 7198.39L407.96599999999995 7198.25L408.2939999999999 7196.29L408.7779999999999 7196.56C409.0999999999999 7196.740000000001 409.8509999999999 7196.950000000001 410.41399999999993 7196.950000000001C410.8019999999999 7196.950000000001 411.03399999999993 7196.77 411.03399999999993 7196.470000000001C411.02799999999996 7196.340000000001 411.02799999999996 7196.160000000001 410.20899999999995 7195.840000000001ZM407.195 7196.65L407.195 7198.79L402.039 7198.79L402.039 7191.06L404.407 7191.06L404.407 7196.650000000001ZM413.138 7177.61L418.26099999999997 7182.66L413.138 7182.66ZM424.161 7188.21L420.916 7188.21L420.916 7183.42C420.916 7183.41 420.913 7183.4 420.913 7183.38C420.91 7183.35 420.908 7183.31 420.902 7183.27C420.895 7183.25 420.887 7183.22 420.876 7183.1900000000005C420.87 7183.17 420.866 7183.150000000001 420.85699999999997 7183.13C420.84499999999997 7183.1 420.827 7183.07 420.811 7183.05C420.80199999999996 7183.03 420.796 7183.02 420.78499999999997 7183C420.756 7182.96 420.724 7182.92 420.686 7182.88L412.909 7175.22C412.907 7175.22 412.903 7175.22 412.901 7175.22C412.867 7175.18 412.831 7175.150000000001 412.79 7175.13C412.769 7175.11 412.74600000000004 7175.11 412.725 7175.09C412.702 7175.08 412.68 7175.07 412.65500000000003 7175.06C412.62800000000004 7175.05 412.6 7175.04 412.57300000000004 7175.030000000001C412.55100000000004 7175.030000000001 412.53000000000003 7175.02 412.509 7175.01C412.46000000000004 7175 412.409 7175 412.35900000000004 7175L394.85400000000004 7175C394.42500000000007 7175 394.07700000000006 7175.34 394.07700000000006 7175.76L394.07700000000006 7188.21L390.82900000000006 7188.21C390.36600000000004 7188.21 389.99000000000007 7188.59 389.9920000000001 7189.04L389.9920000000001 7200.79C389.9920000000001 7201.26 390.37300000000005 7201.62 390.8380000000001 7201.62L394.0760000000001 7201.62L394.0760000000001 7210.24C394.0760000000001 7210.66 394.42500000000007 7211.01 394.8520000000001 7211.01L420.1380000000001 7211.01C420.56700000000006 7211.01 420.9160000000001 7210.66 420.9160000000001 7210.24L420.9160000000001 7201.62L424.1610000000001 7201.62C424.62400000000014 7201.62 425.0000000000001 7201.25 425.0000000000001 7200.79L425.0000000000001 7189.04C425.0000000000001 7188.59 424.62400000000014 7188.21 424.1610000000001 7188.21Z " transform="matrix(1,0,0,1,-389,-7175)"/></symbol><symbol id="external-link" viewBox="0 0 17 16"><path id="SvgjsPath1007" d="M739.199 92.7986L739.199 80L735.9989999999999 80L735.9989999999999 95.9983L751.9979999999999 95.9983L751.9979999999999 92.7986ZM743.294 81.0032L743.305 83.5605L746.6049999999999 83.5737L742.9939999999999 87.1849L744.809 89.0001L748.4259999999999 85.3836L748.4399999999999 88.6956L750.997 88.7058L750.976 83.59129999999999L750.966 81.03389999999999L748.409 81.02349999999998L748.409 81.02369999999999Z " transform="matrix(1,0,0,1,-735,-80)"/></symbol><symbol id="facebook" viewBox="0 0 11 20"><title>facebook</title><desc>Created with Avocode.</desc><path id="SvgjsPath1007" d="M87.162 56.75H84.73880000000001C83.9625 56.75 83.3816 57.065 83.3816 57.8612V59.25H87.162L86.86080000000001 63H83.3816V73H79.60130000000001V63H77.081V59.25H79.60130000000001V56.8463C79.60130000000001 54.318799999999996 80.94210000000001 53 83.9625 53H87.162Z " fill-opacity="1" transform="matrix(1,0,0,1,-77,-53)"/></symbol><symbol id="fax-icon" viewBox="0 0 20 18"><title>fax icon</title><desc>Created with Avocode.</desc><path id="SvgjsPath1007" d="M651.667 633.182L651.667 629.934C651.667 628.9699999999999 648.222 625 646.94 625L638.3330000000001 625L638.3330000000001 633.182L635.0000000000001 633.182L635.0000000000001 643L655.0000000000001 643L655.0000000000001 633.182ZM647.499 635.034L646.726 635.436C644.637 636.4490000000001 641.073 629.8960000000001 643.104 628.7750000000001L643.884 628.3670000000001L644.9730000000001 630.3760000000001L644.2020000000001 630.7790000000001C643.5900000000001 631.1280000000002 645.0130000000001 633.7510000000001 645.6410000000001 633.4280000000001L646.412 633.0270000000002ZM650 637.273L640 637.273L640 626.636L646.39 626.636C647.5459999999999 626.636 647.669 628.733 647.292 629.3979999999999C648.099 629.1809999999999 650 629.3089999999999 650 630.4029999999999Z " fill-opacity="1" transform="matrix(1,0,0,1,-635,-625)"/></symbol><symbol id="flickr" viewBox="0 0 20 12"><title>flickr</title><desc>Created with Avocode.</desc><path id="SvgjsPath1025" d="M1139.17 1103C1137.53 1103 1136.0600000000002 1103.69 1135 1104.81C1133.94 1103.69 1132.47 1103 1130.83 1103C1127.61 1103 1125 1105.69 1125 1109C1125 1112.31 1127.61 1115 1130.83 1115C1132.47 1115 1133.9399999999998 1114.31 1135 1113.19C1136.06 1114.31 1137.53 1115 1139.17 1115C1142.39 1115 1145 1112.31 1145 1109C1145 1105.69 1142.39 1103 1139.17 1103ZM1139.17 1113.29C1136.8700000000001 1113.29 1135 1111.36 1135 1109C1135 1106.64 1136.87 1104.71 1139.17 1104.71C1141.46 1104.71 1143.3300000000002 1106.64 1143.3300000000002 1109C1143.3300000000002 1111.36 1141.4600000000003 1113.29 1139.17 1113.29Z " fill-opacity="1" transform="matrix(1,0,0,1,-1125,-1103)"/></symbol><symbol id="instagram" viewBox="0 0 21 20"><title>instagram</title><desc>Created with Avocode.</desc><path id="SvgjsPath1022" d="M346.878 59.6663C345.022 59.6663 343.518 61.158699999999996 343.518 63C343.518 64.8425 345.022 66.3338 346.878 66.3338C348.735 66.3338 350.239 64.8412 350.239 63C350.239 61.1587 348.73499999999996 59.6663 346.878 59.6663ZM350.952 54.86C349.89 54.8125 349.57 54.8025 346.878 54.8025C344.187 54.8025 343.868 54.8125 342.804 54.861200000000004C340.07 54.9838 338.79699999999997 56.27 338.673 58.96C338.625 60.0137 338.613 60.33 338.613 63C338.613 65.67 338.625 65.9863 338.674 67.0425C338.79699999999997 69.72630000000001 340.066 71.0175 342.806 71.1413C343.86699999999996 71.1887 344.18699999999995 71.1987 346.878 71.1987C349.57099999999997 71.1987 349.89 71.1875 350.954 71.14C353.688 71.0175 354.96000000000004 69.7287 355.086 67.0413C355.134 65.9863 355.144 65.67 355.144 63.00000000000001C355.144 60.330000000000005 355.134 60.01370000000001 355.086 58.96000000000001C354.96000000000004 56.27000000000001 353.684 54.98380000000001 350.952 54.86000000000001ZM346.878 68.135C344.02 68.135 341.702 65.8362 341.702 63.00000000000001C341.702 60.16380000000001 344.019 57.86500000000001 346.878 57.86500000000001C349.736 57.86500000000001 352.055 60.16380000000001 352.055 63.00000000000001C352.055 65.8362 349.738 68.135 346.878 68.135ZM352.259 58.8625C351.591 58.8625 351.04900000000004 58.324999999999996 351.04900000000004 57.662499999999994C351.04900000000004 56.99999999999999 351.591 56.46249999999999 352.259 56.46249999999999C352.927 56.46249999999999 353.469 56.99999999999999 353.469 57.662499999999994C353.469 58.324999999999996 352.928 58.8625 352.259 58.8625ZM356.899 67.1225C356.734 70.7587 354.692 72.77380000000001 351.036 72.94C349.959 72.9888 349.617 73 346.878 73C344.14 73 343.799 72.9888 342.723 72.94C339.058 72.7738 337.027 70.755 336.858 67.1225C336.809 66.05630000000001 336.797 65.7162 336.797 63C336.797 60.285 336.809 59.9438 336.858 58.8762C337.027 55.241299999999995 339.061 53.226299999999995 342.723 53.059999999999995C343.79900000000004 53.0113 344.14 52.99999999999999 346.878 52.99999999999999C349.61699999999996 52.99999999999999 349.959 53.01129999999999 351.036 53.061299999999996C354.7 53.2275 356.734 55.24999999999999 356.899 58.8775C356.948 59.943799999999996 356.959 60.285 356.959 63C356.959 65.7162 356.948 66.0563 356.899 67.1225Z " fill-opacity="1" transform="matrix(1,0,0,1,-336,-53)"/></symbol><symbol id="laptop" viewBox="0 0 36 30"><path id="SvgjsPath1013" d="M424 1674L394 1674L394 1693.5L424 1693.5ZM421 1690.5L397 1690.5L397 1677L421 1677ZM424 1695L394 1695L391 1704L427 1704ZM405.658 1702.5L406.357 1701L411.64300000000003 1701L412.34200000000004 1702.5Z " transform="matrix(1,0,0,1,-391,-1674)"/></symbol><symbol id="lat-lon-globe" viewBox="0 0 24 24"><path d="M12 0c-6.627 0-12 5.373-12 12s5.373 12 12 12 12-5.373 12-12-5.373-12-12-12zm1 16.057v-3.057h2.994c-.059 1.143-.212 2.24-.456 3.279-.823-.12-1.674-.188-2.538-.222zm1.957 2.162c-.499 1.33-1.159 2.497-1.957 3.456v-3.62c.666.028 1.319.081 1.957.164zm-1.957-7.219v-3.015c.868-.034 1.721-.103 2.548-.224.238 1.027.389 2.111.446 3.239h-2.994zm0-5.014v-3.661c.806.969 1.471 2.15 1.971 3.496-.642.084-1.3.137-1.971.165zm2.703-3.267c1.237.496 2.354 1.228 3.29 2.146-.642.234-1.311.442-2.019.607-.344-.992-.775-1.91-1.271-2.753zm-7.241 13.56c-.244-1.039-.398-2.136-.456-3.279h2.994v3.057c-.865.034-1.714.102-2.538.222zm2.538 1.776v3.62c-.798-.959-1.458-2.126-1.957-3.456.638-.083 1.291-.136 1.957-.164zm-2.994-7.055c.057-1.128.207-2.212.446-3.239.827.121 1.68.19 2.548.224v3.015h-2.994zm1.024-5.179c.5-1.346 1.165-2.527 1.97-3.496v3.661c-.671-.028-1.329-.081-1.97-.165zm-2.005-.35c-.708-.165-1.377-.373-2.018-.607.937-.918 2.053-1.65 3.29-2.146-.496.844-.927 1.762-1.272 2.753zm-.549 1.918c-.264 1.151-.434 2.36-.492 3.611h-3.933c.165-1.658.739-3.197 1.617-4.518.88.361 1.816.67 2.808.907zm.009 9.262c-.988.236-1.92.542-2.797.9-.89-1.328-1.471-2.879-1.637-4.551h3.934c.058 1.265.231 2.488.5 3.651zm.553 1.917c.342.976.768 1.881 1.257 2.712-1.223-.49-2.326-1.211-3.256-2.115.636-.229 1.299-.435 1.999-.597zm9.924 0c.7.163 1.362.367 1.999.597-.931.903-2.034 1.625-3.257 2.116.489-.832.915-1.737 1.258-2.713zm.553-1.917c.27-1.163.442-2.386.501-3.651h3.934c-.167 1.672-.748 3.223-1.638 4.551-.877-.358-1.81-.664-2.797-.9zm.501-5.651c-.058-1.251-.229-2.46-.492-3.611.992-.237 1.929-.546 2.809-.907.877 1.321 1.451 2.86 1.616 4.518h-3.933z"/></symbol><symbol id="linkedin" viewBox="0 0 20 20"><title>linkedin</title><desc>Created with Avocode.</desc><path id="SvgjsPath1013" d="M182.645 71.75H178.864V58H182.645ZM180.754 56.415C179.53699999999998 56.415 178.54899999999998 55.4275 178.54899999999998 54.21C178.54899999999998 52.9925 179.53699999999998 52.005 180.754 52.005C181.97199999999998 52.005 182.95999999999998 52.9925 182.95999999999998 54.21C182.95999999999998 55.4275 181.97299999999998 56.415 180.754 56.415ZM197.766 63.3012C197.766 56.735 190.706 56.973800000000004 188.945 60.2063V58H185.165V71.75H188.945V64.745C188.945 60.8537 193.986 60.535000000000004 193.986 64.745V71.75H197.766Z " fill-opacity="1" transform="matrix(1,0,0,1,-178,-52)"/></symbol><symbol id="login" viewBox="0 0 20 16"><path id="SvgjsPath1037" d="M1338.67 19.6L1338.67 16.400000000000002L1345.3300000000002 22L1338.67 27.6L1338.67 24.400000000000002L1332 24.400000000000002L1332 19.6ZM1340.33 14L1340.33 15.6L1350.33 15.6L1350.33 28.4L1340.33 28.4L1340.33 30L1352 30L1352 14Z " transform="matrix(1,0,0,1,-1332,-14)"/></symbol><symbol id="mail" viewBox="0 0 32 24"><path id="SvgjsPath1019" d="M407 2186.95L391.02 2174L422.981 2174ZM391 2194.08L391 2177.42L399.767 2184.52ZM423 2177.42L423 2194.08L414.233 2184.52ZM412.157 2186.2L407 2190.3799999999997L401.843 2186.2L391.029 2198L422.971 2198Z " transform="matrix(1,0,0,1,-391,-2174)"/></symbol><symbol id="marker" viewBox="0 0 14 20"><title>address icon</title><desc>Created with Avocode.</desc><path id="SvgjsPath1007" d="M1136 2272C1134.13 2272 1132.37 2272.73 1131.05 2274.05C1128.61 2276.5 1128.3 2281.11 1130.3999999999999 2283.9L1135.9999999999998 2292L1141.5999999999997 2283.91C1143.6999999999996 2281.1099999999997 1143.3899999999996 2276.5 1140.9499999999996 2274.0499999999997C1139.6299999999997 2272.7299999999996 1137.8699999999997 2271.9999999999995 1135.9999999999995 2271.9999999999995ZM1133.51 2278.94C1133.51 2277.53 1134.66 2276.38 1136.07 2276.38C1137.47 2276.38 1138.62 2277.53 1138.62 2278.94C1138.62 2280.35 1137.4699999999998 2281.5 1136.07 2281.5C1134.6599999999999 2281.5 1133.51 2280.35 1133.51 2278.94Z " fill-opacity="1" transform="matrix(1,0,0,1,-1129,-2272)"/></symbol><symbol id="page-test" viewBox="0 0 54 56"><path id="SvgjsPath1034" d="M898.225 3920.55C897.186 3925.6800000000003 893.155 3929.13 888.197 3929.13C883.516 3929.13 879.402 3926.05 878.003 3921.67L882.379 3921.67L882.379 3919.8L874.931 3919.8L874.931 3927.2000000000003C873.437 3925.0600000000004 872.456 3922.5400000000004 872.2090000000001 3919.8L857.2410000000001 3919.8C856.7270000000001 3919.8 856.3100000000001 3919.38 856.3100000000001 3918.8700000000003C856.3100000000001 3918.3500000000004 856.7270000000001 3917.9300000000003 857.2410000000001 3917.9300000000003L872.1610000000001 3917.9300000000003C872.221 3915.9500000000003 872.643 3914.0600000000004 873.3850000000001 3912.3300000000004L857.2410000000001 3912.3300000000004C856.7270000000001 3912.3300000000004 856.3100000000001 3911.9200000000005 856.3100000000001 3911.4000000000005C856.3100000000001 3910.8800000000006 856.7270000000001 3910.4700000000007 857.2410000000001 3910.4700000000007L874.3580000000001 3910.4700000000007C875.7700000000001 3908.120000000001 877.773 3906.1800000000007 880.176 3904.870000000001L857.2410000000001 3904.870000000001C856.7270000000001 3904.870000000001 856.3100000000001 3904.4500000000007 856.3100000000001 3903.9300000000007C856.3100000000001 3903.4200000000005 856.7270000000001 3903.000000000001 857.2410000000001 3903.000000000001L880.517 3903.000000000001C881.0310000000001 3903.000000000001 881.4480000000001 3903.420000000001 881.4480000000001 3903.9300000000007C881.4480000000001 3904.060000000001 881.421 3904.1800000000007 881.378 3904.2800000000007C883.255 3903.4600000000005 885.3240000000001 3903.0000000000005 887.5 3903.0000000000005C888.619 3903.0000000000005 889.707 3903.1300000000006 890.759 3903.3600000000006L890.759 3888.6100000000006L877.179 3875.0000000000005L847 3875.0000000000005L847 3931.0000000000005L878.695 3931.0000000000005C877.249 3929.9800000000005 875.9970000000001 3928.7100000000005 874.976 3927.2700000000004L876.793 3927.2700000000004L876.793 3923.6800000000003C878.812 3928.05 883.231 3931.0000000000005 888.197 3931.0000000000005C894.067 3931.0000000000005 898.83 3926.9500000000003 900.051 3920.9200000000005C900.153 3920.4100000000003 899.827 3919.9200000000005 899.3230000000001 3919.8200000000006C898.8130000000001 3919.7100000000005 898.3280000000001 3920.0400000000004 898.2250000000001 3920.5500000000006ZM888.897 3889.93L875.8620000000001 3889.93L875.8620000000001 3876.87ZM880.517 3895.53C881.0310000000001 3895.53 881.4480000000001 3895.9500000000003 881.4480000000001 3896.4700000000003C881.4480000000001 3896.9800000000005 881.0310000000001 3897.4 880.517 3897.4L857.2410000000001 3897.4C856.7270000000001 3897.4 856.3100000000001 3896.98 856.3100000000001 3896.4700000000003C856.3100000000001 3895.9500000000003 856.7270000000001 3895.53 857.2410000000001 3895.53ZM866.552 3888.07C867.066 3888.07 867.4830000000001 3888.48 867.4830000000001 3889C867.4830000000001 3889.52 867.066 3889.93 866.552 3889.93L857.241 3889.93C856.727 3889.93 856.31 3889.52 856.31 3889C856.31 3888.48 856.727 3888.07 857.241 3888.07ZM899.138 3912.62C897.042 3908.46 892.8960000000001 3905.7999999999997 888.197 3905.7999999999997C882.51 3905.7999999999997 877.452 3909.5299999999997 875.899 3914.87C875.756 3915.37 876.039 3915.89 876.533 3916.0299999999997C877.027 3916.18 877.544 3915.89 877.687 3915.39C878.988 3910.92 883.408 3907.67 888.197 3907.67C892.447 3907.67 896.168 3910.25 897.815 3914.2000000000003L893.552 3914.2000000000003L893.552 3916.07C893.553 3916.07 899.1370000000001 3916.07 899.138 3916.07C899.139 3916.07 899.14 3916.07 899.1410000000001 3916.07L901.0000000000001 3916.07L901.0000000000001 3908.6000000000004L899.1380000000001 3908.6000000000004Z " transform="matrix(1,0,0,1,-847,-3875)"/></symbol><symbol id="phone" viewBox="0 0 33 37"><path id="SvgjsPath1016" d="M412.841 2040.51C401.798 2045.57 384.657 2012.19 395.451 2006.56L398.60900000000004 2005L403.84400000000005 2015.23L400.72300000000007 2016.77C397.44200000000006 2018.54 404.27600000000007 2031.91 407.63200000000006 2030.28C407.7680000000001 2030.22 410.7150000000001 2028.77 410.72600000000006 2028.76L416.0040000000001 2038.96C415.9920000000001 2038.97 413.02200000000005 2040.43 412.84100000000007 2040.51ZM413.24 2011.28C415.564 2011.98 417.62600000000003 2013.56 418.87 2015.86C420.115 2018.1699999999998 420.309 2020.76 419.616 2023.09L416.926 2022.29C417.413 2020.6499999999999 417.275 2018.83 416.39799999999997 2017.2C415.52399999999994 2015.5800000000002 414.073 2014.47 412.436 2013.98ZM411.838 2016C412.956 2016.33 413.95000000000005 2017.1 414.548 2018.21C415.148 2019.32 415.242 2020.56 414.908 2021.69L410.535 2020.38ZM413.841 2009.26C416.681 2010.11 419.2 2012.04 420.722 2014.86C422.24199999999996 2017.6799999999998 422.479 2020.85 421.63399999999996 2023.6899999999998L424.39199999999994 2024.5199999999998C425.44899999999996 2020.9599999999998 425.15399999999994 2017.0099999999998 423.2509999999999 2013.4899999999998C421.3539999999999 2009.9699999999998 418.20899999999995 2007.5599999999997 414.66399999999993 2006.4999999999998Z " transform="matrix(1,0,0,1,-392,-2005)"/></symbol><symbol id="profile" viewBox="0 0 32 32"><path id="SvgjsPath1010" d="M420.754 1455.13C416.172 1454.0700000000002 411.90700000000004 1453.14 413.97200000000004 1449.24C420.261 1437.35 415.639 1431 409.00000000000006 1431C402.22900000000004 1431 397.72300000000007 1437.6 404.0280000000001 1449.24C406.1550000000001 1453.16 401.7290000000001 1454.09 397.2460000000001 1455.13C393.1520000000001 1456.0700000000002 392.9990000000001 1458.1100000000001 393.0120000000001 1461.67L393.0180000000001 1463L424.9800000000001 1463L424.98500000000007 1461.71C425.0010000000001 1458.1200000000001 424.8620000000001 1456.08 420.7540000000001 1455.13Z " transform="matrix(1,0,0,1,-393,-1431)"/></symbol><symbol id="quote" viewBox="0 0 55 46"><path id="SvgjsPath1007" d="M1097.99 381.99L1120.42 381.99L1120.42 358.915L1109.29 358.915L1120.42 336.00800000000004L1111.78 336.00800000000004L1097.99 358.915ZM1130.06 358.915L1143.35 336.00800000000004L1151.99 336.00800000000004L1140.52 358.915L1151.99 358.915L1151.99 381.99L1130.06 381.99Z " transform="matrix(1,0,0,1,-1097,-336)"/></symbol><symbol id="restore" viewBox="0 0 20 15"><path id="SvgjsPath1007" d="M1409.5 95.5L1405.78 99.6408L1402 95.5L1404.5 95.5C1404.5 91.3583 1407.86 88 1412 88C1414 88 1415.8 88.785 1417.15 90.0567L1415.48 91.9158C1414.58 91.0408 1413.35 90.5 1412 90.5C1409.24 90.5 1407 92.7425 1407 95.5ZM1418.22 91.3592L1414.5 95.5L1417 95.5C1417 98.2575 1414.76 100.5 1412 100.5C1410.65 100.5 1409.42 99.9584 1408.52 99.0842L1406.85 100.943C1408.1999999999998 102.215 1410 103 1412 103C1416.14 103 1419.5 99.6417 1419.5 95.5L1422 95.5Z " transform="matrix(1,0,0,1,-1402,-88)"/></symbol><symbol id="search" viewBox="0 0 20 20"><path id="SvgjsPath1040" d="M1424.99 107.4L1419.66 102.105C1420.44 100.884 1420.89 99.4383 1420.89 97.8892C1420.89 93.54 1417.3300000000002 90 1412.95 90C1408.57 90 1405.01 93.54 1405.01 97.89C1405.01 102.241 1408.57 105.781 1412.95 105.781C1414.43 105.781 1415.82 105.375 1417.01 104.67L1422.3799999999999 110ZM1407.97 97.89C1407.97 95.1625 1410.2 92.9416 1412.95 92.9416C1415.7 92.9416 1417.93 95.1617 1417.93 97.89C1417.93 100.619 1415.7 102.839 1412.95 102.839C1410.2 102.839 1407.97 100.619 1407.97 97.89Z " transform="matrix(1,0,0,1,-1405,-90)"/></symbol><symbol id="settings" viewBox="0 0 16 16"><path id="SvgjsPath1034" d="M900 23.0773L900 20.922700000000003C898.899 20.5314 898.205 20.421300000000002 897.854 19.576700000000002L897.854 19.576000000000004C897.503 18.728700000000003 897.921 18.153300000000005 898.4190000000001 17.104700000000005L896.8950000000001 15.581300000000004C895.8550000000001 16.076000000000004 895.2730000000001 16.498000000000005 894.4240000000001 16.146000000000004L894.4230000000001 16.146000000000004C893.5770000000001 15.795400000000004 893.4670000000001 15.095300000000005 893.0770000000001 14.000000000000004L890.9230000000001 14.000000000000004C890.5350000000001 15.090000000000003 890.4230000000001 15.794700000000004 889.5770000000001 16.146000000000004L889.5760000000001 16.146000000000004C888.7290000000002 16.498000000000005 888.1550000000001 16.080700000000004 887.1050000000001 15.581300000000004L885.5810000000001 17.104700000000005C886.0780000000001 18.150000000000006 886.4980000000002 18.727300000000003 886.1460000000002 19.576000000000004C885.7950000000002 20.423300000000005 885.0900000000001 20.534700000000004 884.0000000000002 20.922700000000003L884.0000000000002 23.0773C885.0880000000002 23.464000000000002 885.7950000000002 23.576600000000003 886.1460000000002 24.4233C886.4990000000001 25.278000000000002 886.0700000000002 25.8673 885.5810000000001 26.8947L887.1050000000001 28.4187C888.1460000000002 27.9233 888.7270000000001 27.502000000000002 889.5760000000001 27.854000000000003L889.5770000000001 27.854000000000003C890.4230000000001 28.204700000000003 890.5340000000001 28.906700000000004 890.9230000000001 30.000000000000004L893.0770000000001 30.000000000000004C893.4650000000001 28.9093 893.5770000000001 28.206700000000005 894.4290000000001 27.852000000000004C895.2710000000001 27.502700000000004 895.8430000000001 27.919300000000003 896.8950000000001 28.419400000000003L898.4180000000001 26.895400000000002C897.9230000000001 25.8533 897.5010000000001 25.273300000000003 897.8530000000001 24.4247C898.2040000000001 23.5773 898.9110000000001 23.4647 900.0000000000001 23.0773ZM892 25.3333C890.159 25.3333 888.667 23.840700000000002 888.667 22C888.667 20.1593 890.159 18.6667 892 18.6667C893.841 18.6667 895.333 20.159299999999998 895.333 22C895.333 23.8407 893.841 25.3333 892 25.3333ZM894 22C894 23.1027 893.103 24 892 24C890.897 24 890 23.1027 890 22C890 20.8974 890.897 20 892 20C893.103 20 894 20.8974 894 22Z " transform="matrix(1,0,0,1,-884,-14)"/></symbol><symbol id="twitter" viewBox="0 0 21 17"><title>twitter</title><desc>Created with Avocode.</desc><path id="SvgjsPath1010" d="M143.558 59.5463C143.82 65.3175 139.482 71.7525 131.801 71.7525C129.46499999999997 71.7525 127.29099999999998 71.0737 125.46 69.9088C127.65499999999999 70.165 129.845 69.5612 131.584 68.21C129.774 68.1763 128.246 66.99 127.721 65.36C128.37 65.4825 129.007 65.4463 129.588 65.29C127.59899999999999 64.89380000000001 126.226 63.116200000000006 126.27 61.215C126.827 61.5225 127.466 61.7075 128.143 61.7287C126.302 60.5075 125.78 58.095000000000006 126.863 56.25C128.903 58.7325 131.951 60.3663 135.389 60.5375C134.785 57.9713 136.74800000000002 55.5 139.419 55.5C140.608 55.5 141.68300000000002 55.9975 142.43800000000002 56.7962C143.38000000000002 56.6125 144.26600000000002 56.2712 145.06500000000003 55.8012C144.75700000000003 56.76 144.10000000000002 57.5638 143.247 58.0713C144.084 57.9713 144.881 57.751200000000004 145.622 57.425000000000004C145.068 58.245000000000005 144.366 58.9675 143.55800000000002 59.5463Z " fill-opacity="1" transform="matrix(1,0,0,1,-125,-55)"/></symbol><symbol id="user-test" viewBox="0 0 54 51"><path id="SvgjsPath1037" d="M898.317 3754.98C897.313 3759.9 893.417 3763.21 888.624 3763.21C884.099 3763.21 880.123 3760.26 878.7710000000001 3756.05L882.1 3756.05L882.1 3754.26L875.8000000000001 3754.26L875.8000000000001 3760.53L877.6 3760.53L877.6 3757.98C879.552 3762.17 883.823 3765 888.624 3765C894.298 3765 898.902 3761.12 900.083 3755.34C900.1809999999999 3754.8500000000004 899.866 3754.38 899.379 3754.28C898.885 3754.19 898.417 3754.5 898.317 3754.98ZM899.2 3747.38C897.1750000000001 3743.4 893.166 3740.84 888.624 3740.84C883.126 3740.84 878.2370000000001 3744.42 876.736 3749.54C876.597 3750.0099999999998 876.871 3750.5099999999998 877.349 3750.65C877.827 3750.79 878.326 3750.51 878.464 3750.04C879.7220000000001 3745.75 883.995 3742.63 888.624 3742.63C892.7330000000001 3742.63 896.3290000000001 3745.11 897.921 3748.8900000000003L893.8000000000001 3748.8900000000003L893.8000000000001 3750.6800000000003L901.0000000000001 3750.6800000000003L901.0000000000001 3743.53L899.2000000000002 3743.53ZM874.186 3747.25C874.191 3747.24 874.1940000000001 3747.23 874.1990000000001 3747.21C874.4050000000001 3746.69 874.638 3746.17 874.9000000000001 3745.68C877.5340000000001 3740.68 882.7950000000001 3737.2599999999998 888.8500000000001 3737.2599999999998C889.1560000000002 3737.2599999999998 889.4550000000002 3737.29 889.7560000000001 3737.31C889.8040000000001 3737.18 889.8600000000001 3737.0499999999997 889.9060000000001 3736.92C891.176 3736.34 892.0000000000001 3735.09 892.0000000000001 3733.6800000000003L892.0000000000001 3730.11C892.0000000000001 3729.2400000000002 891.6760000000002 3728.4100000000003 891.1000000000001 3727.76L891.1000000000001 3723C891.1500000000001 3722.51 891.3480000000002 3719.58 889.2170000000001 3717.16C887.3690000000001 3715.06 884.3690000000001 3714 880.3000000000001 3714C876.2310000000001 3714 873.2310000000001 3715.06 871.383 3717.16C870.091 3718.62 869.658 3720.27 869.5250000000001 3721.46C867.9830000000001 3720.67 866.1650000000001 3720.26 864.1000000000001 3720.26C854.7500000000001 3720.26 854.2050000000002 3728.19 854.2000000000002 3728.32L854.2000000000002 3732.4100000000003C853.6170000000002 3733.0400000000004 853.3000000000002 3733.7700000000004 853.3000000000002 3734.5000000000005L853.3000000000002 3737.5900000000006C853.3000000000002 3738.5500000000006 853.7350000000001 3739.4500000000007 854.4790000000002 3740.0600000000004C855.2210000000001 3742.8400000000006 857.0490000000002 3744.9500000000003 857.7590000000001 3745.6900000000005L857.7590000000001 3748.1400000000003C857.7590000000001 3748.84 857.3730000000002 3749.4900000000002 856.7060000000001 3749.8500000000004L850.7180000000001 3753.59C848.4250000000001 3754.83 847.0000000000001 3757.2200000000003 847.0000000000001 3759.81L847.0000000000001 3763.21L877.0080000000002 3763.21C874.5820000000001 3760.46 873.1000000000001 3756.86 873.1000000000001 3752.92C873.1000000000001 3751.51 873.3050000000002 3750.15 873.6580000000001 3748.85C873.8060000000002 3748.31 873.9840000000002 3747.77 874.1860000000001 3747.25ZM848.8 3761.42L848.8 3759.81C848.8 3757.87 849.865 3756.09 851.5799999999999 3755.16L851.6279999999999 3755.1299999999997L851.674 3755.0999999999995L857.6229999999999 3751.3899999999994C858.837 3750.7099999999996 859.56 3749.4999999999995 859.56 3748.1399999999994L859.56 3744.9699999999993L859.06 3744.4499999999994C858.5569999999999 3743.9299999999994 856.8679999999999 3742.0299999999993 856.2199999999999 3739.5999999999995L856.0699999999999 3739.0499999999993L855.622 3738.6799999999994C855.29 3738.4099999999994 855.0999999999999 3738.0099999999993 855.0999999999999 3737.5899999999992L855.0999999999999 3734.499999999999C855.0999999999999 3734.229999999999 855.2509999999999 3733.919999999999 855.5269999999999 3733.619999999999L855.9999999999999 3733.1099999999988L855.9999999999999 3728.3799999999987C856.0699999999999 3727.5599999999986 856.8109999999999 3722.049999999999 864.0999999999999 3722.049999999999C866.2529999999999 3722.049999999999 868.0669999999999 3722.549999999999 869.4999999999999 3723.5199999999986L869.4999999999999 3727.7599999999984C868.9169999999999 3728.4099999999985 868.5999999999999 3729.229999999998 868.5999999999999 3730.1099999999983L868.5999999999999 3733.6799999999985C868.5999999999999 3733.9599999999987 868.6309999999999 3734.2199999999984 868.6909999999999 3734.4799999999987C868.8699999999999 3735.259999999999 869.309 3735.9599999999987 869.9449999999999 3736.4599999999987C869.9459999999999 3736.4599999999987 869.9459999999999 3736.469999999999 869.9469999999999 3736.469999999999C869.9529999999999 3736.489999999999 869.9599999999999 3736.509999999999 869.9639999999999 3736.529999999999C870.015 3736.7099999999987 870.0699999999999 3736.909999999999 870.1379999999999 3737.139999999999L870.2049999999999 3737.349999999999C870.2149999999999 3737.389999999999 870.2259999999999 3737.409999999999 870.2359999999999 3737.449999999999C870.2929999999999 3737.619999999999 870.3519999999999 3737.789999999999 870.4129999999999 3737.959999999999C870.4409999999999 3738.039999999999 870.4669999999999 3738.129999999999 870.4959999999999 3738.199999999999C870.5499999999998 3738.349999999999 870.6019999999999 3738.469999999999 870.6519999999998 3738.599999999999C870.6949999999998 3738.709999999999 870.7379999999998 3738.809999999999 870.7819999999998 3738.919999999999C870.8169999999998 3738.9899999999993 870.8509999999998 3739.079999999999 870.8839999999998 3739.149999999999L870.8879999999998 3739.149999999999C870.9049999999999 3739.189999999999 870.9209999999998 3739.229999999999 870.9379999999998 3739.2599999999993L870.9349999999997 3739.2599999999993C870.9569999999998 3739.3099999999995 870.9799999999997 3739.359999999999 871.0019999999997 3739.4099999999994C871.0899999999997 3739.5999999999995 871.1779999999998 3739.7899999999995 871.2679999999997 3739.9699999999993C871.2829999999997 3739.9999999999995 871.2969999999997 3740.0299999999993 871.3119999999997 3740.0599999999995C871.3359999999997 3740.1099999999997 871.3599999999997 3740.1499999999996 871.3849999999996 3740.1899999999996C871.5249999999996 3740.47 871.6629999999997 3740.72 871.7999999999996 3740.9599999999996C871.8169999999997 3740.99 871.8319999999997 3741.0199999999995 871.8469999999996 3741.0399999999995C872.3649999999997 3741.9399999999996 872.8379999999996 3742.5999999999995 873.0989999999996 3742.9399999999996L873.0999999999996 3745.2499999999995C872.6999999999996 3746.0599999999995 872.3619999999995 3746.9199999999996 872.0879999999996 3747.8099999999995C872.0109999999996 3747.8699999999994 871.9439999999996 3747.9299999999994 871.8609999999996 3747.9799999999996L863.8309999999997 3752.3299999999995C863.6089999999997 3752.4499999999994 863.4039999999997 3752.5999999999995 863.1959999999997 3752.7299999999996C863.0989999999997 3752.7999999999997 862.9939999999997 3752.8499999999995 862.8999999999996 3752.9199999999996C862.8839999999997 3752.93 862.8709999999996 3752.95 862.8539999999996 3752.9599999999996C860.8249999999996 3754.47 859.5999999999996 3756.8499999999995 859.5999999999996 3759.4199999999996L859.5999999999996 3761.4199999999996Z " transform="matrix(1,0,0,1,-847,-3714)"/></symbol><symbol id="wait-time" viewBox="0 0 40 40"><title>icon</title><desc>Created with Avocode.</desc><path id="SvgjsPath1019" d="M1089 363C1089 374.045 1080.04 383 1068.99 383C1067.19 383 1065.45 382.74 1063.79 382.295L1064.8999999999999 379.13800000000003C1066.2099999999998 379.47 1067.58 379.66700000000003 1068.9899999999998 379.66700000000003C1078.1899999999998 379.66700000000003 1085.6699999999998 372.19000000000005 1085.6699999999998 363C1085.6699999999998 353.81 1078.1899999999998 346.33299999999997 1068.9899999999998 346.33299999999997C1065.2699999999998 346.33299999999997 1061.8399999999997 347.573 1059.0599999999997 349.64899999999994L1062.4799999999998 353.06299999999993L1050.7899999999997 355.31999999999994L1053.0499999999997 343.63199999999995L1056.6799999999998 347.2699999999999C1060.08 344.6069999999999 1064.34 342.99999999999994 1068.9899999999998 342.99999999999994C1080.0399999999997 342.99999999999994 1088.9999999999998 351.9549999999999 1088.9999999999998 362.99999999999994ZM1070.67 353L1070.67 363L1079 363L1079 366.333L1067.33 366.333L1067.33 353ZM1054.78 371.667C1055.34 372.577 1055.98 373.428 1056.69 374.21299999999997L1054.3500000000001 376.602C1053.38 375.55499999999995 1052.5200000000002 374.407 1051.7900000000002 373.17199999999997ZM1056.82 378.848L1059.1799999999998 376.44300000000004C1059.9899999999998 377.03700000000003 1060.86 377.557 1061.7699999999998 377.99800000000005L1060.6599999999999 381.16300000000007C1059.29 380.5350000000001 1057.9999999999998 379.75700000000006 1056.82 378.84800000000007ZM1053.33 368.662L1050.34 370.17199999999997C1049.83 368.86499999999995 1049.47 367.493 1049.25 366.07099999999997L1052.58 365.80699999999996C1052.74 366.78999999999996 1053 367.74299999999994 1053.33 368.662ZM1049 362.748L1052.36 362.48C1052.3999999999999 361.308 1052.57 360.17 1052.84 359.06800000000004L1049.3799999999999 359.06800000000004C1049.1399999999999 360.25800000000004 1049.02 361.49000000000007 1048.9999999999998 362.74800000000005Z " fill-opacity="1" transform="matrix(1,0,0,1,-1049,-343)"/></symbol><symbol id="youtube" viewBox="0 0 21 16"><title>youtube</title><desc>Created with Avocode.</desc><path id="SvgjsPath1016" d="M238.795 59.6663L245.515 62.9938L238.795 66.3338ZM251.396 63C251.37099999999998 57.8463 250.98899999999998 55.875 247.713 55.6537C244.685 55.4488 237.942 55.45 234.91899999999998 55.6537C231.64499999999998 55.875 231.259 57.8375 231.23399999999998 63C231.259 68.1538 231.641 70.125 234.91699999999997 70.3462C237.93999999999997 70.55 244.68299999999996 70.5513 247.71099999999998 70.3462C250.98499999999999 70.125 251.37099999999998 68.1625 251.396 63Z " fill-opacity="1" transform="matrix(1,0,0,1,-231,-55)"/></symbol></svg>