<?xml version="1.0" encoding="UTF-8"?><!DOCTYPE svg PUBLIC "-//W3C//DTD SVG 1.1//EN" "http://www.w3.org/Graphics/SVG/1.1/DTD/svg11.dtd"><svg xmlns="http://www.w3.org/2000/svg" xmlns:xlink="http://www.w3.org/1999/xlink" xmlns:svgjs="http://svgjs.com/svgjs"><symbol id="dogs-allowed" viewBox="0 0 41 35"><title>icon</title><desc>Created with Avocode.</desc><path id="SvgjsPath1016" d="M1382.97 372.756L1392.57 372.756L1392.57 381.436C1392.57 382.85499999999996 1393.7 383.99899999999997 1395.11 383.99899999999997C1396.51 383.99899999999997 1397.6499999999999 382.852 1397.6499999999999 381.436L1397.6499999999999 372.756C1398.28 372.756 1398.7399999999998 372.25199999999995 1398.7399999999998 371.66499999999996L1398.7399999999998 365.18999999999994L1390.4654499999997 361.22061999999994L1391.4870199999998 360.02448999999996L1398.9199999999998 363.71599999999995L1408.9799999999998 357.525L1408.9999999999998 351.73699999999997L1404.3099999999997 351.73999999999995L1403.0599999999997 349.775L1390.7899999999997 352.267L1395.3999999999996 358.965L1397.5099999999995 357.628L1397.5099999999995 352.723L1398.7199999999996 352.723L1398.7199999999996 358.308L1395.0099999999995 360.661L1393.1799999999996 357.968L1391.4828899999995 360.01751L1369.0799999999995 349.00800000000004L1369.0799999999995 350.79100000000005L1390.4415599999995 361.2180000000001L1373.3999999999996 361.2180000000001L1371.1899999999996 359.9580000000001C1370.4899999999996 359.54800000000006 1369.5899999999997 359.7990000000001 1369.1899999999996 360.5130000000001C1368.7899999999995 361.2270000000001 1369.0399999999995 362.1300000000001 1369.7399999999996 362.5400000000001L1373.2199999999996 364.5590000000001L1373.2199999999996 381.4330000000001C1373.2199999999996 382.8520000000001 1374.3599999999997 383.9970000000001 1375.7599999999995 383.9970000000001C1377.1599999999996 383.9970000000001 1378.2999999999995 382.85000000000014 1378.2999999999995 381.4330000000001L1378.2899999999995 374.8240000000001L1382.8899999999994 382.68400000000014C1383.6099999999994 383.90400000000017 1385.1699999999994 384.30100000000016 1386.3699999999994 383.5770000000001C1387.5699999999995 382.85000000000014 1387.9699999999993 381.2650000000001 1387.2499999999995 380.0460000000001ZM1400.98 355.977C1400.33 355.977 1399.8 355.44 1399.8 354.777C1399.8 354.114 1400.33 353.578 1400.98 353.578C1401.64 353.578 1402.17 354.114 1402.17 354.777C1402.16 355.44 1401.64 355.977 1400.98 355.977Z " fill-opacity="1" transform="matrix(1,0,0,1,-1368,-349)"/></symbol><symbol id="historic-site" viewBox="0 0 40 40"><title>icon</title><desc>Created with Avocode.</desc><path id="SvgjsPath1010" d="M1188.67 352.667L1188.67 355.33299999999997L1187.3300000000002 355.33299999999997L1187.3300000000002 352.667L1186.0000000000002 352.667L1186.0000000000002 350.43699999999995L1191.6000000000001 348.00699999999995L1192.0200000000002 347.804L1192.0000000000002 346.9L1185.6000000000001 344.05699999999996C1185.5600000000002 344.03999999999996 1185.5200000000002 344.03799999999995 1185.4800000000002 344.02899999999994C1185.4300000000003 344.01899999999995 1185.3800000000003 344.0009999999999 1185.3400000000001 344.0009999999999C1185.3400000000001 344.0009999999999 1185.3400000000001 343.99999999999994 1185.3300000000002 343.99999999999994C1185.3100000000002 343.99999999999994 1185.2800000000002 344.01199999999994 1185.2600000000002 344.01499999999993C1185.2000000000003 344.02199999999993 1185.1400000000003 344.0279999999999 1185.0800000000002 344.04999999999995C1185.0400000000002 344.06699999999995 1185.0100000000002 344.09499999999997 1184.9800000000002 344.11899999999997C1184.9400000000003 344.142 1184.9000000000003 344.159 1184.8700000000003 344.18899999999996C1184.8300000000004 344.22799999999995 1184.8000000000004 344.277 1184.7700000000004 344.325C1184.7600000000004 344.34999999999997 1184.7400000000005 344.368 1184.7200000000005 344.396C1184.7200000000005 344.398 1184.7200000000005 344.40000000000003 1184.7200000000005 344.402C1184.7100000000005 344.441 1184.7000000000005 344.485 1184.6900000000005 344.527C1184.6900000000005 344.572 1184.6700000000005 344.616 1184.6700000000005 344.661C1184.6700000000005 344.663 1184.6700000000005 344.665 1184.6700000000005 344.667L1184.6700000000005 352.667L1183.3300000000006 352.667L1183.3300000000006 355.33299999999997L1182.0000000000007 355.33299999999997L1182.0000000000007 352.667L1178.0000000000007 352.667L1178.0000000000007 360L1192.6700000000008 360L1192.6700000000008 352.667ZM1214 355.333L1212.67 355.333L1212.67 352.66700000000003L1211.3300000000002 352.66700000000003L1211.3300000000002 350.437L1216.91 348.007L1217.3300000000002 347.80400000000003L1217.3100000000002 346.901L1210.9400000000003 344.058C1210.9400000000003 344.057 1210.9300000000003 344.057 1210.9300000000003 344.057C1210.8900000000003 344.03900000000004 1210.8500000000004 344.03700000000003 1210.8000000000002 344.02700000000004C1210.7600000000002 344.01800000000003 1210.7200000000003 344.00100000000003 1210.67 344.00100000000003L1210.67 344.00000000000006C1210.64 344.00000000000006 1210.6200000000001 344.01300000000003 1210.5900000000001 344.0160000000001C1210.5300000000002 344.0230000000001 1210.4700000000003 344.02900000000005 1210.42 344.05000000000007C1210.38 344.06700000000006 1210.3500000000001 344.0950000000001 1210.3100000000002 344.1190000000001C1210.2700000000002 344.1410000000001 1210.2400000000002 344.1590000000001 1210.2100000000003 344.1890000000001C1210.1600000000003 344.2290000000001 1210.1300000000003 344.2800000000001 1210.1000000000004 344.3300000000001C1210.0900000000004 344.3530000000001 1210.0700000000004 344.3700000000001 1210.0600000000004 344.3950000000001C1210.0600000000004 344.3970000000001 1210.0600000000004 344.3990000000001 1210.0600000000004 344.40100000000007C1210.0400000000004 344.4410000000001 1210.0400000000004 344.48800000000006 1210.0300000000004 344.5330000000001C1210.0200000000004 344.5760000000001 1210.0000000000005 344.61800000000005 1210.0000000000005 344.66100000000006C1210.0000000000005 344.66200000000003 1210.0000000000005 344.6650000000001 1210.0000000000005 344.66700000000003L1210.0000000000005 352.66700000000003L1208.6700000000005 352.66700000000003L1208.6700000000005 355.333L1207.3300000000006 355.333L1207.3300000000006 352.66700000000003L1203.3300000000006 352.66700000000003L1203.3300000000006 360.00000000000006L1218.0000000000007 360.00000000000006L1218.0000000000007 352.66700000000003L1214.0000000000007 352.66700000000003ZM1202.67 364.667L1202.67 358.667L1198.67 358.667L1198.67 361.33299999999997L1197.3300000000002 361.33299999999997L1197.3300000000002 358.667L1193.3300000000002 358.667L1193.3300000000002 364.667L1191.3300000000002 364.667L1191.3300000000002 360.666L1179.3300000000002 360.666L1179.3300000000002 384L1182.0000000000002 384L1182.0000000000002 376C1182.0000000000002 374.162 1183.5000000000002 372.667 1185.3300000000002 372.667C1187.17 372.667 1188.67 374.162 1188.67 376L1188.67 384L1193.3300000000002 384L1193.3300000000002 372.667C1193.3300000000002 370.09299999999996 1195.43 368 1198.0000000000002 368C1200.5700000000002 368 1202.6700000000003 370.093 1202.6700000000003 372.667L1202.6700000000003 384L1207.3300000000004 384L1207.3300000000004 376C1207.3300000000004 374.162 1208.8300000000004 372.667 1210.6700000000003 372.667C1212.5000000000002 372.667 1214.0000000000002 374.162 1214.0000000000002 376L1214.0000000000002 384L1216.6700000000003 384L1216.6700000000003 360.666L1204.6700000000003 360.666L1204.6700000000003 364.667ZM1182 363.333L1188.67 363.333L1188.67 369.333L1182 369.333ZM1207.33 363.333L1214 363.333L1214 369.333L1207.33 369.333Z " fill-opacity="1" transform="matrix(1,0,0,1,-1178,-344)"/></symbol><symbol id="mt-park" viewBox="0 0 47 40"><title>icon</title><desc>Created with Avocode.</desc><path id="SvgjsPath1007" d="M1091.95 355.075C1095.3500000000001 355.075 1098.1100000000001 352.36699999999996 1098.1100000000001 349.038C1098.1100000000001 345.709 1095.3500000000001 343 1091.95 343C1088.56 343 1085.8 345.709 1085.8 349.038C1085.8 352.367 1088.56 355.075 1091.95 355.075C1095.3500000000001 355.075 1091.95 355.075 1091.95 355.075ZM1110.42 361.555L1111.95 360.046L1113.49 361.555L1115.16 359.919L1115.9 359.186L1110.42 348.921L1104.92 359.20799999999997L1107.3400000000001 361.55499999999995L1108.88 360.04599999999994ZM1117.34 351.302C1119.1999999999998 351.302 1120.72 352.79200000000003 1120.72 354.622C1120.72 355.04 1121.07 355.377 1121.49 355.377C1121.92 355.377 1122.26 355.04 1122.26 354.622C1122.26 353.541 1123.16 352.66 1124.26 352.66C1124.69 352.66 1125.03 352.322 1125.03 351.906C1125.03 351.488 1124.69 351.151 1124.26 351.151C1123.22 351.151 1122.3 351.599 1121.65 352.298C1120.8100000000002 350.806 1119.19 349.79200000000003 1117.3400000000001 349.79200000000003C1116.91 349.79200000000003 1116.5700000000002 350.13000000000005 1116.5700000000002 350.547C1116.5700000000002 350.96500000000003 1116.91 351.302 1117.3400000000001 351.302C1117.7600000000002 351.302 1117.3400000000001 351.302 1117.3400000000001 351.302ZM1110.42 381.49C1108.18 381.49 1106.19 380.438 1104.92 378.818L1104.92 383L1115.69 383L1115.69 379.085C1114.42 380.554 1112.53 381.48999999999995 1110.42 381.48999999999995C1108.3000000000002 381.48999999999995 1110.42 381.48999999999995 1110.42 381.48999999999995ZM1116.64 360.574L1113.49 363.69L1111.95 362.18L1110.42 363.69L1108.88 362.18L1107.3400000000001 363.69L1104.5800000000002 360.986L1104.18 360.597L1099.3200000000002 369.707L1097.8700000000001 367.992C1097.0600000000002 367.028 1095.8700000000001 366.475 1094.5900000000001 366.475C1093.15 366.475 1091.8200000000002 367.184 1091.0300000000002 368.37L1082.15 381.727C1081.98 381.979 1081.96 382.30199999999996 1082.1100000000001 382.568L1082.39 383L1103.38 383L1103.38 379.085C1102.1100000000001 380.554 1100.22 381.48999999999995 1098.1100000000001 381.48999999999995C1097.68 381.48999999999995 1097.3400000000001 381.15299999999996 1097.3400000000001 380.73599999999993C1097.3400000000001 380.31899999999996 1097.68 379.98099999999994 1098.1100000000001 379.98099999999994C1100.71 379.98099999999994 1102.89 378.15899999999993 1103.38 375.74699999999996L1103.38 375.47299999999996C1102.41 376.393 1101.1000000000001 376.96199999999993 1099.65 376.96199999999993C1099.22 376.96199999999993 1098.88 376.62499999999994 1098.88 376.2079999999999C1098.88 375.7899999999999 1099.22 375.4529999999999 1099.65 375.4529999999999C1101.47 375.4529999999999 1102.99 374.2009999999999 1103.38 372.5309999999999L1103.38 371.7469999999999C1102.7600000000002 372.1769999999999 1102 372.4339999999999 1101.18 372.4339999999999C1100.76 372.4339999999999 1100.41 372.0959999999999 1100.41 371.6789999999999C1100.41 371.26199999999994 1100.76 370.9249999999999 1101.18 370.9249999999999C1102.23 370.9249999999999 1103.1000000000001 370.2389999999999 1103.38 369.3069999999999L1103.38 368.8469999999999C1103.38 368.67999999999995 1103.45 368.53399999999993 1103.5400000000002 368.4099999999999C1103.65 368.1169999999999 1103.9300000000003 367.9059999999999 1104.2600000000002 367.9059999999999C1104.6900000000003 367.9059999999999 1105.0300000000002 368.2429999999999 1105.0300000000002 368.6599999999999C1105.0300000000002 369.90899999999993 1106.0700000000002 370.9249999999999 1107.3400000000001 370.9249999999999C1107.7600000000002 370.9249999999999 1108.1100000000001 371.2619999999999 1108.1100000000001 371.6789999999999C1108.1100000000001 372.0959999999999 1107.7600000000002 372.4339999999999 1107.3400000000001 372.4339999999999C1106.4700000000003 372.4339999999999 1105.67 372.1369999999999 1105.0300000000002 371.6559999999999C1105.0300000000002 371.6639999999999 1105.0300000000002 371.6709999999999 1105.0300000000002 371.6789999999999C1105.0300000000002 373.75999999999993 1106.7600000000002 375.4529999999999 1108.88 375.4529999999999C1109.3000000000002 375.4529999999999 1109.65 375.7899999999999 1109.65 376.2079999999999C1109.65 376.6249999999999 1109.3000000000002 376.96199999999993 1108.88 376.96199999999993C1107.4 376.96199999999993 1106.0600000000002 376.3759999999999 1105.0900000000001 375.4289999999999C1105.45 377.9959999999999 1107.7 379.98099999999994 1110.42 379.98099999999994C1113.02 379.98099999999994 1115.19 378.15899999999993 1115.69 375.74699999999996L1115.69 375.47299999999996C1114.72 376.393 1113.41 376.96199999999993 1111.95 376.96199999999993C1111.53 376.96199999999993 1111.18 376.62499999999994 1111.18 376.2079999999999C1111.18 375.7899999999999 1111.53 375.4529999999999 1111.95 375.4529999999999C1113.77 375.4529999999999 1115.3 374.2009999999999 1115.69 372.5309999999999L1115.69 371.7469999999999C1115.0700000000002 372.1769999999999 1114.31 372.4339999999999 1113.49 372.4339999999999C1113.07 372.4339999999999 1112.72 372.0959999999999 1112.72 371.6789999999999C1112.72 371.26199999999994 1113.07 370.9249999999999 1113.49 370.9249999999999C1114.53 370.9249999999999 1115.41 370.2389999999999 1115.69 369.3069999999999L1115.69 368.8469999999999C1115.69 368.67999999999995 1115.76 368.53399999999993 1115.8500000000001 368.4099999999999C1115.96 368.1169999999999 1116.2300000000002 367.9059999999999 1116.5700000000002 367.9059999999999C1116.9900000000002 367.9059999999999 1117.3400000000001 368.2429999999999 1117.3400000000001 368.6599999999999C1117.3400000000001 369.90899999999993 1118.3700000000001 370.9249999999999 1119.65 370.9249999999999C1120.0700000000002 370.9249999999999 1120.42 371.2619999999999 1120.42 371.6789999999999C1120.42 372.0959999999999 1120.0700000000002 372.4339999999999 1119.65 372.4339999999999C1118.77 372.4339999999999 1117.98 372.1369999999999 1117.3300000000002 371.6559999999999C1117.3300000000002 371.6639999999999 1117.3400000000001 371.6709999999999 1117.3400000000001 371.6789999999999C1117.3400000000001 373.75999999999993 1119.0600000000002 375.4529999999999 1121.19 375.4529999999999C1121.6100000000001 375.4529999999999 1121.95 375.7899999999999 1121.95 376.2079999999999C1121.95 376.6249999999999 1121.6100000000001 376.96199999999993 1121.19 376.96199999999993C1119.71 376.96199999999993 1118.3700000000001 376.3759999999999 1117.4 375.4289999999999C1117.76 377.9959999999999 1120.01 379.98099999999994 1122.72 379.98099999999994C1123.15 379.98099999999994 1123.49 380.31899999999996 1123.49 380.73599999999993C1123.49 381.1529999999999 1123.15 381.48999999999995 1122.72 381.48999999999995C1120.49 381.48999999999995 1118.5 380.43799999999993 1117.23 378.8179999999999L1117.23 382.99999999999994L1127.07 382.99999999999994C1127.3999999999999 382.99999999999994 1127.6899999999998 382.8349999999999 1127.87 382.55799999999994C1128.04 382.28099999999995 1128.05 381.94499999999994 1127.8899999999999 381.65899999999993ZM1092.32 369.194C1092.82 368.437 1093.6699999999998 367.98400000000004 1094.59 367.98400000000004C1095.4099999999999 367.98400000000004 1096.1699999999998 368.338 1096.6899999999998 368.95300000000003L1098.5399999999997 371.158L1093.0299999999997 381.49L1084.1399999999996 381.49Z " fill-opacity="1" transform="matrix(1,0,0,1,-1082,-343)"/></symbol><symbol id="wheelchair-accessible" viewBox="0 0 40 41">
<title>icon</title>
<desc/>
<g>
	<path d="M34.9,18.6c-0.5-0.5-1.1-0.8-1.8-0.7l-8.3,0.5l4.6-5.2c0.6-0.7,0.8-1.7,0.6-2.6c-0.1-0.6-0.5-1.2-1.1-1.5
		c0,0-10.9-6.3-10.9-6.3c-0.9-0.5-2-0.4-2.8,0.3L9.9,7.8c-1,0.9-1.1,2.4-0.2,3.4c0.9,1,2.4,1.1,3.4,0.2l4-3.6l3.3,1.9l-5.9,6.7
		c-2.4,0.4-4.6,1.5-6.4,3.1l3.1,3.1c1.4-1.3,3.2-2,5.3-2c4.3,0,7.8,3.5,7.8,7.8c0,2-0.8,3.9-2,5.3l3.1,3.1c2-2.2,3.3-5.1,3.3-8.3
		c0-1.9-0.4-3.7-1.2-5.3l3.2-0.2l-0.8,9.6c-0.1,1.3,0.9,2.5,2.2,2.6c0.1,0,0.1,0,0.2,0c1.2,0,2.3-0.9,2.4-2.2l1-12.3
		C35.7,19.8,35.4,19.1,34.9,18.6z"/>
	<path d="M30.5,8.5c2.2,0,4-1.8,4-4c0-2.2-1.8-4-4-4c-2.2,0-4,1.8-4,4C26.6,6.7,28.3,8.5,30.5,8.5z"/>
	<path d="M16.5,36.2c-4.3,0-7.8-3.5-7.8-7.8c0-1.6,0.5-3.1,1.3-4.4L7,20.9c-1.6,2.1-2.6,4.7-2.6,7.5c0,6.7,5.4,12.2,12.2,12.2
		c2.8,0,5.4-1,7.5-2.6l-3.1-3.1C19.7,35.7,18.2,36.2,16.5,36.2z"/>
</g>
</symbol></svg>